<?xml version="1.0" encoding="UTF-8"?>
<svg id="Layer_2" data-name="Layer 2" xmlns="http://www.w3.org/2000/svg" xmlns:xlink="http://www.w3.org/1999/xlink" viewBox="0 0 833.65 244.2">
  <defs>
    <style>
      .cls-1 {
        fill: url(#linear-gradient);
      }

      .cls-2 {
        fill: #fff;
      }
    </style>
    <linearGradient id="linear-gradient" x1="265.45" y1="274.62" x2="816.82" y2="-30.42" gradientUnits="userSpaceOnUse">
      <stop offset=".48" stop-color="#ed782f"/>
      <stop offset=".51" stop-color="#ef8849" stop-opacity=".87"/>
      <stop offset=".58" stop-color="#f4b289" stop-opacity=".57"/>
      <stop offset=".65" stop-color="#f9d3bb" stop-opacity=".32"/>
      <stop offset=".71" stop-color="#fcebe0" stop-opacity=".15"/>
      <stop offset=".75" stop-color="#fef9f6" stop-opacity=".04"/>
      <stop offset=".78" stop-color="#fff" stop-opacity="0"/>
    </linearGradient>
  </defs>
  <g id="Layer_1-2" data-name="Layer 1">
    <g>
      <path class="cls-1" d="m833.65,244.2H248.63V0h585.02v244.2Zm-565.02-20h545.02V20H268.63v204.2Z"/>
      <g>
        <path class="cls-2" d="m0,169.72v-94.41h30.24c6.76,0,11.74.38,15.05,1.15,10.72,2.42,19.65,10.72,19.65,23.47,0,8.04-3.83,15.18-10.97,19.14,10.33,3.57,15.56,11.1,15.56,21.94,0,9.06-3.83,17.35-10.97,22.33-7.4,5.23-12.25,6.38-27.17,6.38H0Zm32.66-58.56c6,0,9.19-2.55,9.19-7.53s-3.06-7.14-9.06-7.14h-9.7v14.67h9.57Zm2.81,37.38c6.76,0,10.97-2.93,10.97-9.06,0-5.49-3.7-8.17-10.84-8.17h-12.5v17.22h12.38Z"/>
        <path class="cls-2" d="m82.55,169.72v-94.41h24.11v94.41h-24.11Z"/>
        <path class="cls-2" d="m220.21,121.37c0,25.39-18.63,50.27-50.39,50.27-27.94,0-50.14-21.82-50.14-49.5s23.09-48.61,50.52-48.61c21.31,0,41.85,14.42,47.2,33.43h-27.05c-4.47-7.78-11.74-12.25-20.8-12.25-15.18,0-25.77,12.25-25.77,27.43s9.95,28.32,25.9,28.32c11.23,0,19.65-5.49,22.58-15.18h-28.19v-19.26h56.13v5.36Z"/>
      </g>
      <g>
        <path class="cls-2" d="m335.03,101.08c-1.02-6.76-3.83-9.19-8.55-9.19-4.47,0-8.29,3.19-8.29,7.4,0,5.61,5.1,8.17,15.44,12.63,20.8,8.93,26.03,16.46,26.03,28.83,0,18.24-12.5,28.96-32.92,28.96s-34.06-10.72-34.06-31v-2.04h23.98c.13,7.78,3.96,12.89,9.95,12.89,4.98,0,9.06-3.95,9.06-9.06,0-7.53-10.46-10.84-19.01-14.29-15.44-6.25-22.45-14.42-22.45-26.66,0-16.07,15.56-27.81,32.92-27.81,6.25,0,11.74,1.4,16.71,3.96,10.08,5.23,14.93,12.76,15.05,25.39h-23.86Z"/>
        <path class="cls-2" d="m439.52,109.38c-4.08-10.33-13.01-16.46-22.84-16.46-15.05,0-25.26,12.89-25.26,27.56s10.46,28.07,25.39,28.07c9.57,0,17.73-5.36,22.71-15.95h25.26c-5.87,22.71-25.39,37.13-47.71,37.13-13.14,0-25.52-4.59-35.21-14.16-10.21-9.95-14.54-21.94-14.54-36.23,0-25.01,21.56-47.59,48.61-47.59,13.01,0,23.47,3.57,32.92,11.61,8.93,7.65,14.29,16.33,15.95,26.03h-25.26Z"/>
        <path class="cls-2" d="m522.45,167.94l-21.82-30.49h-.25v30.49h-23.09v-94.41h30.87c9.82,0,17.35,1.28,22.33,3.44,10.21,4.59,17.35,15.69,17.35,29.09,0,14.93-8.93,27.17-23.47,29.73l25.64,32.15h-27.56Zm-13.14-46.95c9.57,0,15.44-4.47,15.44-13.52,0-8.17-6.12-12.76-15.18-12.76h-9.19v26.28h8.93Z"/>
        <path class="cls-2" d="m560.6,167.94v-94.41h52.43v21.18h-29.34v14.67h28.45v21.18h-28.45v16.2h29.34v21.18h-52.43Z"/>
        <path class="cls-2" d="m627.97,167.94v-94.41h52.43v21.18h-29.34v14.67h28.45v21.18h-28.45v16.2h29.34v21.18h-52.43Z"/>
        <path class="cls-2" d="m754.02,167.94l-36.23-57.67.64,57.67h-23.09v-94.41h20.79l36.74,59.71-1.02-59.71h23.09v94.41h-20.92Z"/>
      </g>
    </g>
  </g>
</svg>